<svg width="29" height="24" viewBox="0 0 29 24" fill="none" xmlns="http://www.w3.org/2000/svg">
<path fill-rule="evenodd" clip-rule="evenodd" d="M14.1287 0C19.1475 0 22.3138 5.41693 19.8641 9.81207L14.4779 19.4757C14.2652 19.8572 13.7159 19.8515 13.5112 19.4655L8.32755 9.6911C5.99841 5.29925 9.17058 2.77011e-06 14.1287 0ZM14.1566 3.57732C12.5143 3.57734 11.183 4.90795 11.183 6.54935C11.183 8.19072 12.5143 9.52135 14.1566 9.52137C15.7988 9.52137 17.1301 8.19073 17.1301 6.54935C17.1301 4.90794 15.7988 3.57732 14.1566 3.57732Z" fill="#FA7319"/>
<path d="M14.652 22.6754C14.652 22.9794 14.4055 23.2258 14.1013 23.2258C13.7972 23.2258 13.5507 22.9794 13.5507 22.6754C13.5507 22.3715 13.7972 22.125 14.1013 22.125C14.4055 22.125 14.652 22.3715 14.652 22.6754Z" fill="#FA7319"/>
<path fill-rule="evenodd" clip-rule="evenodd" d="M6.26753 2.69678C6.51041 2.69681 6.70729 2.89285 6.70729 3.13465C6.70729 3.37644 6.51041 3.57248 6.26753 3.57252H5.11304C3.38236 3.57252 1.97936 4.96924 1.97936 6.69218V10.6869H3.18853C3.85651 10.6869 4.398 10.1478 4.398 9.48284V7.88745C3.76206 7.6991 3.29826 7.11278 3.29826 6.41851C3.29827 5.57217 3.98747 4.88606 4.83761 4.88605C5.68776 4.88605 6.37695 5.57217 6.37696 6.41851C6.37696 7.11262 5.91338 7.69881 5.27767 7.8873V9.48284C5.27767 10.6315 4.34232 11.5626 3.18853 11.5626H1.97936V23.5492C1.97936 23.791 1.78241 23.9871 1.53953 23.9871C1.29663 23.9871 1.0997 23.791 1.09969 23.5492V11.5626H0.439713C0.196812 11.5626 -0.00012207 11.3666 -0.00012207 11.1248C-0.00012207 10.883 0.196812 10.6869 0.439713 10.6869H1.09969V6.69218C1.09969 4.48561 2.89656 2.69678 5.11304 2.69678H6.26753ZM4.83761 5.76178C4.47327 5.76179 4.17794 6.0558 4.17794 6.41851C4.17794 6.78123 4.47327 7.07531 4.83761 7.07532C5.20196 7.07532 5.49736 6.78124 5.49736 6.41851C5.49736 6.0558 5.20196 5.76178 4.83761 5.76178Z" fill="#171717"/>
<path fill-rule="evenodd" clip-rule="evenodd" d="M5.27767 12.4936C6.43146 12.4936 7.36682 13.4248 7.36682 14.5734V15.3229C7.56676 15.2283 7.79041 15.1754 8.02649 15.1754C8.87664 15.1754 9.56583 15.8615 9.56584 16.7078C9.56584 16.9428 9.51261 17.1654 9.41767 17.3644C10.5636 17.3735 11.4897 18.3011 11.4897 19.4441V23.5489C11.4897 23.7907 11.2929 23.9867 11.05 23.9867C10.8071 23.9867 10.6101 23.7907 10.6101 23.5489V19.4441C10.6101 18.7791 10.0686 18.24 9.4006 18.24H8.04922C8.04166 18.2401 8.03408 18.2403 8.02649 18.2403C7.21539 18.2403 6.55079 17.6158 6.49145 16.8234C6.48868 16.8035 6.48715 16.7833 6.48715 16.7626V14.5734C6.48715 13.9085 5.94565 13.3693 5.27767 13.3693H3.90326C3.66039 13.3693 3.46346 13.1733 3.46343 12.9315C3.46343 12.6897 3.66037 12.4936 3.90326 12.4936H5.27767ZM8.02649 16.0511C7.66216 16.0511 7.36683 16.3451 7.36682 16.7078C7.36682 17.068 7.65808 17.3604 8.01894 17.3644C8.02135 17.3644 8.02377 17.3643 8.02619 17.3643H8.04198C8.39917 17.3561 8.68625 17.0654 8.68625 16.7078C8.68624 16.3451 8.39084 16.0511 8.02649 16.0511Z" fill="#171717"/>
<path d="M4.56302 21.9618C4.86664 21.9618 5.11281 22.2068 5.11281 22.5091C5.11281 22.8113 4.86664 23.0564 4.56302 23.0564C4.25939 23.0564 4.0133 22.8113 4.0133 22.5091C4.0133 22.2068 4.2594 21.9618 4.56302 21.9618Z" fill="#171717"/>
<path fill-rule="evenodd" clip-rule="evenodd" d="M4.40329 19.3894C4.95105 19.3894 5.47697 19.6036 5.86765 19.9858L6.55655 20.6599C6.77485 20.0778 7.33841 19.6634 7.99915 19.6634C8.84929 19.6634 9.53849 20.3495 9.5385 21.1958C9.5385 22.0422 8.84929 22.7283 7.99915 22.7283C7.46477 22.7283 6.99402 22.4571 6.71801 22.0456L5.25109 20.6104C5.02491 20.3891 4.7204 20.2651 4.40329 20.2651H3.90334C3.66044 20.2651 3.4635 20.0691 3.4635 19.8273C3.4635 19.5855 3.66044 19.3894 3.90334 19.3894H4.40329ZM7.99915 20.5391C7.63482 20.5391 7.33949 20.8331 7.33948 21.1958C7.33948 21.3055 7.36662 21.4089 7.41439 21.4998C7.44724 21.535 7.47304 21.5744 7.49211 21.616C7.61311 21.7606 7.79535 21.8526 7.99915 21.8526C8.36349 21.8526 8.65891 21.5585 8.65891 21.1958C8.6589 20.8331 8.36348 20.5391 7.99915 20.5391Z" fill="#171717"/>
<path d="M4.398 15.1206C4.91416 15.1206 5.33256 15.5371 5.33258 16.051C5.33258 16.5648 4.91416 16.9814 4.398 16.9814C3.88184 16.9814 3.46343 16.5648 3.46343 16.051C3.46344 15.5371 3.88185 15.1206 4.398 15.1206Z" fill="#171717"/>
<path d="M6.48692 10.0309C6.79055 10.0309 7.03671 10.2759 7.03671 10.5782C7.0367 10.8804 6.79054 11.1255 6.48692 11.1255C6.18331 11.1254 5.93722 10.8804 5.9372 10.5782C5.9372 10.2759 6.1833 10.0309 6.48692 10.0309Z" fill="#171717"/>
<path fill-rule="evenodd" clip-rule="evenodd" d="M21.9903 2.69678C21.7474 2.69681 21.5505 2.89285 21.5505 3.13465C21.5505 3.37644 21.7474 3.57248 21.9903 3.57252H23.1448C24.8755 3.57252 26.2785 4.96924 26.2785 6.69218V10.6869H25.0693C24.4013 10.6869 23.8598 10.1478 23.8598 9.48284V7.88745C24.4958 7.6991 24.9596 7.11278 24.9596 6.41851C24.9595 5.57217 24.2703 4.88606 23.4202 4.88605C22.5701 4.88605 21.8809 5.57217 21.8809 6.41851C21.8809 7.11262 22.3444 7.69881 22.9801 7.8873V9.48284C22.9801 10.6315 23.9155 11.5626 25.0693 11.5626H26.2785V23.5492C26.2785 23.791 26.4754 23.9871 26.7183 23.9871C26.9612 23.9871 27.1581 23.791 27.1581 23.5492V11.5626H27.8181C28.061 11.5626 28.2579 11.3666 28.2579 11.1248C28.2579 10.883 28.061 10.6869 27.8181 10.6869H27.1581V6.69218C27.1581 4.48561 25.3613 2.69678 23.1448 2.69678H21.9903ZM23.4202 5.76178C23.7845 5.76179 24.0799 6.0558 24.0799 6.41851C24.0799 6.78123 23.7846 7.07531 23.4202 7.07532C23.0559 7.07532 22.7605 6.78124 22.7605 6.41851C22.7605 6.0558 23.0559 5.76178 23.4202 5.76178Z" fill="#171717"/>
<path fill-rule="evenodd" clip-rule="evenodd" d="M22.9801 12.4936C21.8264 12.4936 20.891 13.4248 20.891 14.5734V15.3229C20.6911 15.2283 20.4674 15.1754 20.2313 15.1754C19.3812 15.1754 18.692 15.8615 18.692 16.7078C18.692 16.9428 18.7452 17.1654 18.8402 17.3644C17.6942 17.3735 16.7681 18.3011 16.7681 19.4441V23.5489C16.7681 23.7907 16.965 23.9867 17.2078 23.9867C17.4507 23.9867 17.6477 23.7907 17.6477 23.5489V19.4441C17.6477 18.7791 18.1892 18.24 18.8572 18.24H20.2086C20.2162 18.2401 20.2237 18.2403 20.2313 18.2403C21.0424 18.2403 21.707 17.6158 21.7664 16.8234C21.7691 16.8035 21.7707 16.7833 21.7707 16.7626V14.5734C21.7707 13.9085 22.3122 13.3693 22.9801 13.3693H24.3546C24.5974 13.3693 24.7944 13.1733 24.7944 12.9315C24.7944 12.6897 24.5975 12.4936 24.3546 12.4936H22.9801ZM20.2313 16.0511C20.5957 16.0511 20.891 16.3451 20.891 16.7078C20.891 17.068 20.5997 17.3604 20.2389 17.3644C20.2365 17.3644 20.2341 17.3643 20.2316 17.3643H20.2158C19.8586 17.3561 19.5716 17.0654 19.5716 16.7078C19.5716 16.3451 19.867 16.0511 20.2313 16.0511Z" fill="#171717"/>
<path d="M23.6948 21.9618C23.3912 21.9618 23.145 22.2068 23.145 22.5091C23.145 22.8113 23.3912 23.0564 23.6948 23.0564C23.9984 23.0564 24.2445 22.8113 24.2445 22.5091C24.2445 22.2068 23.9984 21.9618 23.6948 21.9618Z" fill="#171717"/>
<path fill-rule="evenodd" clip-rule="evenodd" d="M23.8545 19.3894C23.3068 19.3894 22.7809 19.6036 22.3902 19.9858L21.7013 20.6599C21.483 20.0778 20.9194 19.6634 20.2587 19.6634C19.4085 19.6634 18.7193 20.3495 18.7193 21.1958C18.7193 22.0422 19.4085 22.7283 20.2587 22.7283C20.7931 22.7283 21.2638 22.4571 21.5398 22.0456L23.0067 20.6104C23.2329 20.3891 23.5374 20.2651 23.8545 20.2651H24.3545C24.5974 20.2651 24.7943 20.0691 24.7943 19.8273C24.7943 19.5855 24.5974 19.3894 24.3545 19.3894H23.8545ZM20.2587 20.5391C20.623 20.5391 20.9183 20.8331 20.9183 21.1958C20.9183 21.3055 20.8912 21.4089 20.8434 21.4998C20.8106 21.535 20.7848 21.5744 20.7657 21.616C20.6447 21.7606 20.4625 21.8526 20.2587 21.8526C19.8943 21.8526 19.5989 21.5585 19.5989 21.1958C19.5989 20.8331 19.8943 20.5391 20.2587 20.5391Z" fill="#171717"/>
<path d="M23.8598 15.1206C23.3437 15.1206 22.9253 15.5371 22.9252 16.051C22.9252 16.5648 23.3437 16.9814 23.8598 16.9814C24.376 16.9814 24.7944 16.5648 24.7944 16.051C24.7944 15.5371 24.376 15.1206 23.8598 15.1206Z" fill="#171717"/>
<path d="M21.7709 10.0309C21.4673 10.0309 21.2211 10.2759 21.2211 10.5782C21.2211 10.8804 21.4673 11.1255 21.7709 11.1255C22.0745 11.1254 22.3206 10.8804 22.3206 10.5782C22.3206 10.2759 22.0745 10.0309 21.7709 10.0309Z" fill="#171717"/>
</svg>
